<svg width="157" height="40" viewBox="0 0 157 40" fill="none" xmlns="http://www.w3.org/2000/svg">
<path d="M15.2942 6.61475C9.32736 8.28854 5.71484 13.3472 5.71484 19.8859C5.71484 26.4247 9.32774 31.4833 15.301 33.1476C17.3015 33.7404 19.4559 34.5041 19.9867 36.5245C20.0019 36.5827 20.0794 36.5827 20.0946 36.5245C20.6254 34.5044 22.7802 33.7412 24.7875 33.1571C30.7539 31.4833 34.3668 26.4247 34.3668 19.8859C34.3668 13.3472 30.7539 8.28854 24.7807 6.62426C22.7802 6.03146 20.6258 5.49582 20.095 3.47579C20.0798 3.41758 20.0023 3.41758 19.9871 3.47579C19.4563 5.49582 17.3015 6.03108 15.2942 6.61475ZM32.92 19.8863C32.92 25.0721 27.2625 27.0788 20.0407 27.0788C12.8189 27.0788 7.16134 25.0721 7.16134 19.8863C7.16134 14.7006 12.8185 12.6938 20.0407 12.6938C27.2628 12.6938 32.92 14.7006 32.92 19.8863Z" fill="#2B2B2B"/>
<g clip-path="url(#clip0_1898_3975)">
<path d="M51.3438 10.2229C54.4518 9.7017 57.9113 10.6037 60.0595 12.9876C61.3001 14.2664 62.042 15.9621 62.328 17.7073C62.705 20.1567 62.2224 22.7932 60.7587 24.823C59.5716 26.365 57.9287 27.5931 56.0452 28.1342C53.7366 28.8224 51.174 28.7102 48.963 27.7347C46.9979 26.9169 45.367 25.3494 44.4446 23.4332C43.561 21.4836 43.4167 19.2547 43.8043 17.1648C44.1425 15.9835 44.5743 14.8089 45.3242 13.8214C46.7239 11.8451 48.9884 10.6358 51.3438 10.2229ZM49.487 14.7408C48.1422 15.8846 47.3922 17.6739 47.4765 19.4311C47.4671 21.342 48.3253 23.3918 50.0604 24.3392C52.3129 25.7276 55.6054 25.3361 57.2911 23.2355C58.2602 22.0034 58.6639 20.3852 58.5918 18.8365C58.4674 17.1902 57.771 15.4878 56.3727 14.5243C54.3622 13.0892 51.3905 13.1399 49.487 14.7408Z" fill="#2B2B2B"/>
<path d="M110.805 10.4701C112.08 10.5022 113.358 10.5302 114.632 10.4701C114.578 13.6705 114.619 16.8748 114.636 20.0765C114.779 19.8801 114.925 19.6864 115.073 19.4939C115.538 18.9207 115.954 18.3113 116.358 17.694C118.464 17.7795 120.573 17.7033 122.679 17.7207C122.718 15.3221 122.663 12.9221 122.709 10.5222C123.9 10.5342 125.092 10.5342 126.283 10.5235C126.307 13.6918 126.275 16.8601 126.307 20.0284C126.315 22.7865 126.246 25.5486 126.339 28.3066C125.103 28.2625 123.866 28.3133 122.631 28.2906C122.628 25.8239 122.638 23.3584 122.653 20.893C120.282 20.8756 117.914 20.905 115.545 20.9037C115.231 20.9064 114.919 20.9037 114.608 20.9064C114.612 23.3611 114.617 25.8158 114.625 28.2706L114.61 28.3093C113.355 28.2866 112.1 28.2692 110.846 28.332C110.861 24.4515 110.833 20.571 110.851 16.6904C110.825 14.6165 110.889 12.54 110.805 10.4688V10.4701Z" fill="#2B2B2B"/>
<path d="M71.1881 14.9189C72.6893 14.6022 74.3015 14.8508 75.6342 15.6124C76.9202 16.3982 77.8559 17.6676 78.3358 19.0881C79.0604 21.5883 78.7502 24.5655 76.9282 26.5351C75.9497 27.7177 74.4859 28.4607 72.958 28.577C71.4247 28.7507 69.858 28.2081 68.679 27.2367C68.4517 26.9788 68.2392 26.7088 68.0133 26.4509C68.1001 27.7845 67.9879 29.1208 68.0012 30.4557C67.9972 31.3364 68.0654 32.217 68.0333 33.0989C66.8556 33.1403 65.6766 33.1123 64.4989 33.1056C64.539 27.1498 64.5269 21.1927 64.4922 15.2369C65.6592 15.2102 66.8289 15.2516 67.9959 15.2009C68.0026 15.8142 68.0012 16.4276 68.0119 17.0409C68.2352 16.7844 68.4504 16.5211 68.6763 16.2659C69.3754 15.6004 70.2497 15.1434 71.1881 14.9189ZM70.8953 18.003C70.2203 18.142 69.5826 18.4801 69.1041 18.9785C67.6029 20.4671 67.6189 23.2773 69.2992 24.6283C70.5077 25.6853 72.4781 25.6625 73.6852 24.6136C75.423 23.1931 75.4818 20.1531 73.6972 18.7473C72.9433 18.0792 71.8792 17.8119 70.8953 18.003Z" fill="#2B2B2B"/>
<path d="M81.9699 16.7469C83.4618 15.2503 85.6594 14.6596 87.7301 14.8507C89.2393 15.0338 90.7352 15.6137 91.7725 16.7629C93.2764 18.3317 93.6828 20.6181 93.5103 22.716C90.1951 22.7214 86.8813 22.7174 83.566 22.7227C83.7184 23.5231 84.0192 24.3583 84.701 24.8607C86.4067 26.1957 89.1217 25.7734 90.425 24.0723C91.2726 24.5668 92.1589 24.989 93.0518 25.3952C92.2738 26.8999 90.7739 27.9235 89.1511 28.3203C87.5149 28.6905 85.753 28.6771 84.1649 28.1012C82.3924 27.4879 80.9072 26.0393 80.3498 24.2367C79.8084 22.7174 79.8364 21.039 80.3097 19.5063C80.6332 18.4734 81.1705 17.4899 81.9699 16.7469ZM84.8494 18.2809C84.1315 18.758 83.7799 19.5838 83.5701 20.3869C85.6942 20.3508 87.8183 20.3789 89.9425 20.3816C89.8462 19.3206 89.1645 18.3184 88.1592 17.9282C87.0965 17.5072 85.7757 17.5674 84.8494 18.2809Z" fill="#2B2B2B"/>
<path d="M133.146 15.1248C135.088 14.5342 137.31 14.7333 139.041 15.8277C139.842 16.3475 140.572 17.013 141.025 17.8655C141.875 19.3367 142.093 21.0806 141.957 22.7522C138.639 22.6667 135.314 22.7228 131.995 22.7322C132.046 22.9487 132.098 23.1678 132.157 23.3856C132.363 24.2155 132.965 24.925 133.738 25.2871C135.433 26.0702 137.674 25.5918 138.784 24.0551C138.977 24.1567 139.171 24.2609 139.365 24.3638C140.052 24.7259 140.743 25.0827 141.459 25.3847C140.747 26.7611 139.419 27.7526 137.945 28.1815C136.187 28.7294 134.259 28.6813 132.523 28.0733C130.515 27.3958 128.964 25.6185 128.526 23.55C128.291 22.032 128.308 20.4351 128.863 18.984C129.606 17.1372 131.238 15.6847 133.146 15.1248ZM133.038 18.4641C132.455 18.9452 132.194 19.6815 131.975 20.379C134.132 20.3416 136.29 20.4017 138.448 20.3697C138.318 19.7229 138.117 19.0481 137.624 18.5817C136.44 17.3631 134.285 17.3176 133.038 18.4641Z" fill="#2B2B2B"/>
<path d="M99.7514 16.3124C101.623 14.3133 105.256 14.2799 107.029 16.4246C107.813 17.4509 108.137 18.7538 108.142 20.0286C108.141 22.7826 108.132 25.538 108.142 28.2921C106.908 28.276 105.675 28.2907 104.441 28.3028C104.46 25.7238 104.473 23.1447 104.46 20.5657C104.46 19.7252 104.079 18.8353 103.33 18.4037C102.224 17.7783 100.68 18.0014 99.849 18.9796C99.2768 19.6263 99.1071 20.5243 99.095 21.3622C99.1017 23.6752 99.1017 25.987 99.0897 28.3001C97.8786 28.3068 96.6674 28.2947 95.4563 28.3415C95.4523 23.9492 95.5151 19.5569 95.4336 15.1672C96.63 15.1779 97.8264 15.1752 99.0228 15.1592C99.0228 15.8714 98.9787 16.5823 98.944 17.2932C99.2127 16.9672 99.468 16.6277 99.7514 16.3124Z" fill="#2B2B2B"/>
<path d="M142.338 15.1903C143.779 15.1662 145.22 15.1796 146.661 15.1836C147.239 16.0161 147.846 16.8272 148.459 17.633C149.644 19.3955 151.054 20.991 152.462 22.5758C153.285 23.562 154.058 24.5883 154.848 25.5998C155.282 26.1557 155.717 26.7116 156.144 27.2742C156.408 27.6176 156.68 27.9557 156.961 28.2871C155.556 28.3058 154.151 28.2897 152.746 28.3018C152.609 28.1174 152.471 27.9343 152.335 27.7499C151.373 26.4697 150.476 25.1415 149.458 23.9068C148.945 24.6457 148.441 25.3914 147.91 26.1183C147.403 26.8252 146.862 27.5094 146.418 28.2603C144.998 28.3285 143.575 28.2884 142.152 28.2924C142.184 28.2483 142.25 28.1588 142.282 28.1147C143.234 26.9374 144.105 25.6987 145.046 24.5134C145.808 23.5273 146.586 22.5518 147.3 21.5295C145.651 19.4116 144.016 17.2829 142.338 15.1903Z" fill="#2B2B2B"/>
<path d="M152.405 15.1768C153.831 15.1621 155.258 15.1928 156.684 15.1621C155.612 16.5358 154.561 17.9255 153.5 19.3072C153.012 19.9353 152.516 20.5566 152.048 21.1994C152.009 21.186 151.933 21.1593 151.896 21.1459C151.237 20.3108 150.674 19.3901 149.895 18.6591C150.755 17.5166 151.586 16.3487 152.405 15.1768Z" fill="#2B2B2B"/>
</g>
<defs>
<clipPath id="clip0_1898_3975">
<rect width="113.36" height="23.04" fill="white" transform="translate(43.6016 10.0801)"/>
</clipPath>
</defs>
</svg>
