<svg width="1918" height="1153" viewBox="0 0 1918 1153" fill="none" xmlns="http://www.w3.org/2000/svg">
<path d="M0.5 0.5H1917.43V1150.66H0.5V0.5ZM1917.43 1150.66L1278.46 767.273M0.5 0.5L639.544 383.894M703.374 383.887H639.475V447.786M703.374 383.887V447.786M703.374 383.887H767.273M703.374 383.887L194.279 1.69617M703.374 447.786H639.475L0.5 192.792M703.374 447.786H767.273M767.273 383.887V447.786M767.273 383.887H831.172M767.273 383.887L383.733 0.5M767.273 447.786H831.172M831.172 383.887V447.786M831.172 383.887H895.072M831.172 383.887L575.503 0.5M831.172 447.786H895.072M895.072 383.887V447.786M895.072 383.887H958.971M895.072 447.786H958.971M958.971 383.887V447.786M958.971 383.887H1022.87M958.971 447.786H1022.87M1022.87 383.887V447.786M1022.87 383.887H1086.77M1022.87 447.786H1086.77M1086.77 383.887V447.786M1086.77 383.887H1150.67M1086.77 447.786H1150.67M1150.67 383.887V447.786M1150.67 383.887H1214.57M1150.67 447.786H1214.57M1214.57 383.887V447.786M1214.57 383.887H1278.47V447.786H1214.57M703.386 447.786H639.487V511.685H703.386M703.386 447.786V511.685M703.386 447.786H767.285M703.386 511.685H767.285M767.285 447.786V511.685M767.285 447.786H831.184M767.285 511.685H831.184M831.184 447.786V511.685M831.184 447.786H895.083M831.184 511.685H895.083M895.083 447.786V511.685M895.083 447.786H958.982M895.083 511.685H958.982M958.982 447.786V511.685M958.982 447.786H1022.88M958.982 511.685H1022.88M1022.88 447.786V511.685M1022.88 447.786H1086.78M1022.88 511.685H1086.78M1086.78 447.786V511.685M1086.78 447.786H1150.68M1086.78 511.685H1150.68M1150.68 447.786V511.685M1150.68 447.786H1214.58M1150.68 511.685H1214.58M1214.58 447.786V511.685M1214.58 447.786H1278.48V511.685H1214.58M703.397 511.685H639.498V575.584H703.397M703.397 511.685V575.584M703.397 511.685H767.296M703.397 575.584H767.296M767.296 511.685V575.584M767.296 511.685H831.195M767.296 575.584H831.195M831.195 511.685V575.584M831.195 511.685H895.094M831.195 575.584H895.094M895.094 511.685V575.584M895.094 511.685H958.994M895.094 575.584H958.994M958.994 511.685V575.584M958.994 511.685H1022.89M958.994 575.584H1022.89M1022.89 511.685V575.584M1022.89 511.685H1086.79M1022.89 575.584H1086.79M1086.79 511.685V575.584M1086.79 511.685H1150.69M1086.79 575.584H1150.69M1150.69 511.685V575.584M1150.69 511.685H1214.59M1150.69 575.584H1214.59M1214.59 511.685V575.584M1214.59 511.685H1278.49V575.584H1214.59M703.409 575.584H639.51V639.483H703.409M703.409 575.584V639.483M703.409 575.584H767.308M703.409 639.483H767.308M767.308 575.584V639.483M767.308 575.584H831.207M767.308 639.483H831.207M831.207 575.584V639.483M831.207 575.584H895.106M831.207 639.483H895.106M895.106 575.584V639.483M895.106 575.584H959.005M895.106 639.483H959.005M959.005 575.584V639.483M959.005 575.584H1022.91M959.005 639.483H1022.91M1022.91 575.584V639.483M1022.91 575.584H1086.8M1022.91 639.483H1086.8M1086.8 575.584V639.483M1086.8 575.584H1150.7M1086.8 639.483H1150.7M1150.7 575.584V639.483M1150.7 575.584H1214.6M1150.7 639.483H1214.6M1214.6 575.584V639.483M1214.6 575.584H1278.5V639.483H1214.6M703.42 639.483H639.521V703.382H703.42M703.42 639.483V703.382M703.42 639.483H767.319M703.42 703.382H767.319M767.319 639.483V703.382M767.319 639.483H831.218M767.319 703.382H831.218M831.218 639.483V703.382M831.218 639.483H895.117M831.218 703.382H895.117M895.117 639.483V703.382M895.117 639.483H959.017M895.117 703.382H959.017M959.017 639.483V703.382M959.017 639.483H1022.92M959.017 703.382H1022.92M1022.92 639.483V703.382M1022.92 639.483H1086.82M1022.92 703.382H1086.82M1086.82 639.483V703.382M1086.82 639.483H1150.71M1086.82 703.382H1150.71M1150.71 639.483V703.382M1150.71 639.483H1214.61M1150.71 703.382H1214.61M1214.61 639.483V703.382M1214.61 639.483H1278.51V703.382H1214.61M703.432 703.382H639.533V767.281H703.432M703.432 703.382V767.281M703.432 703.382H767.331M703.432 767.281H767.331M767.331 703.382V767.281M767.331 703.382H831.23M767.331 767.281H831.23M831.23 703.382V767.281M831.23 703.382H895.129M831.23 767.281H895.129M895.129 703.382V767.281M895.129 703.382H959.028M895.129 767.281H959.028M959.028 703.382V767.281M959.028 703.382H1022.93M959.028 767.281H1022.93M1022.93 703.382V767.281M1022.93 703.382H1086.83M1022.93 767.281H1086.83M1086.83 703.382V767.281M1086.83 703.382H1150.73M1086.83 767.281H1150.73M1150.73 703.382V767.281M1150.73 703.382H1214.63M1150.73 767.281H1214.63M1214.63 703.382V767.281M1214.63 703.382H1278.52V767.281H1214.63M1278.46 385.083L1917.43 1.69617M1214.56 385.083L1723.66 2.89234M1150.66 385.083L1534.2 1.69617M1086.76 385.083L1342.43 1.69617M895.068 383.887L767.273 1.69617M1022.87 385.083L1150.66 2.89234M958.967 385.083V0.5M175.29 105.372L1743.56 106.02M1603.78 189.886H316.142V962.471H1603.78M430.031 258.22H1489.9M518.858 311.515H1399.72M1333.01 352.353H586.921V800.007H1333.01M639.475 768.47L0.5 1151.86M703.374 768.47L194.279 1150.66M1214.56 767.273L1723.66 1149.47M767.273 768.47L383.733 1151.86M1150.66 767.273L1534.2 1150.66M831.172 768.47L575.503 1151.86M1086.76 767.273L1342.43 1150.66M895.068 768.47L767.273 1150.66M1022.87 767.273L1150.66 1149.47M958.967 767.273V1151.86M175.29 1046.98L1743.56 1046.34M430.031 894.14H1489.9M1399.72 840.845H518.858V311.519M639.479 704.57L0.5 959.565M639.479 511.681L0.5 385.083M639.479 640.675L0.5 767.273M639.479 575.58H0.5M430.031 258.224V894.144M175.286 1046.99V105.372M1278.46 447.782L1917.43 192.788M1278.46 704.567L1917.43 959.561M1278.46 511.677L1917.43 385.079M1278.46 640.671L1917.43 767.27M1278.46 575.576H1917.43M1331.01 352.349V800.003M1399.08 311.515V840.841M1487.9 258.22V894.14M1601.79 189.889V962.475M1742.65 1046.99V105.372" stroke="url(#paint0_radial_25173_2382)" stroke-linecap="round" stroke-linejoin="round"/>
<defs>
<radialGradient id="paint0_radial_25173_2382" cx="0" cy="0" r="1" gradientUnits="userSpaceOnUse" gradientTransform="translate(958.964 576.178) rotate(90) scale(575.678 958.464)">
<stop offset="0.320178" stop-color="#D5D5D5" stop-opacity="0"/>
<stop offset="1" stop-color="#AFAFAF"/>
</radialGradient>
</defs>
</svg>
