<svg width="1920" height="1155" viewBox="0 0 1920 1155" fill="none" xmlns="http://www.w3.org/2000/svg">
<path d="M1.53125 1.5332H1918.46V1151.69H1.53125V1.5332ZM1918.46 1151.69L1279.49 768.306M1.53125 1.5332L640.575 384.927M704.405 384.92H640.506V448.819M704.405 384.92V448.819M704.405 384.92H768.304M704.405 384.92L195.31 2.72937M704.405 448.819H640.506L1.53125 193.825M704.405 448.819H768.304M768.304 384.92V448.819M768.304 384.92H832.203M768.304 384.92L384.764 1.5332M768.304 448.819H832.203M832.203 384.92V448.819M832.203 384.92H896.103M832.203 384.92L576.534 1.5332M832.203 448.819H896.103M896.103 384.92V448.819M896.103 384.92H960.002M896.103 448.819H960.002M960.002 384.92V448.819M960.002 384.92H1023.9M960.002 448.819H1023.9M1023.9 384.92V448.819M1023.9 384.92H1087.8M1023.9 448.819H1087.8M1087.8 384.92V448.819M1087.8 384.92H1151.7M1087.8 448.819H1151.7M1151.7 384.92V448.819M1151.7 384.92H1215.6M1151.7 448.819H1215.6M1215.6 384.92V448.819M1215.6 384.92H1279.5V448.819H1215.6M704.417 448.819H640.518V512.718H704.417M704.417 448.819V512.718M704.417 448.819H768.316M704.417 512.718H768.316M768.316 448.819V512.718M768.316 448.819H832.215M768.316 512.718H832.215M832.215 448.819V512.718M832.215 448.819H896.114M832.215 512.718H896.114M896.114 448.819V512.718M896.114 448.819H960.013M896.114 512.718H960.013M960.013 448.819V512.718M960.013 448.819H1023.91M960.013 512.718H1023.91M1023.91 448.819V512.718M1023.91 448.819H1087.81M1023.91 512.718H1087.81M1087.81 448.819V512.718M1087.81 448.819H1151.71M1087.81 512.718H1151.71M1151.71 448.819V512.718M1151.71 448.819H1215.61M1151.71 512.718H1215.61M1215.61 448.819V512.718M1215.61 448.819H1279.51V512.718H1215.61M704.428 512.718H640.529V576.617H704.428M704.428 512.718V576.617M704.428 512.718H768.327M704.428 576.617H768.327M768.327 512.718V576.617M768.327 512.718H832.226M768.327 576.617H832.226M832.226 512.718V576.617M832.226 512.718H896.125M832.226 576.617H896.125M896.125 512.718V576.617M896.125 512.718H960.025M896.125 576.617H960.025M960.025 512.718V576.617M960.025 512.718H1023.92M960.025 576.617H1023.92M1023.92 512.718V576.617M1023.92 512.718H1087.82M1023.92 576.617H1087.82M1087.82 512.718V576.617M1087.82 512.718H1151.72M1087.82 576.617H1151.72M1151.72 512.718V576.617M1151.72 512.718H1215.62M1151.72 576.617H1215.62M1215.62 512.718V576.617M1215.62 512.718H1279.52V576.617H1215.62M704.44 576.617H640.541V640.516H704.44M704.44 576.617V640.516M704.44 576.617H768.339M704.44 640.516H768.339M768.339 576.617V640.516M768.339 576.617H832.238M768.339 640.516H832.238M832.238 576.617V640.516M832.238 576.617H896.137M832.238 640.516H896.137M896.137 576.617V640.516M896.137 576.617H960.036M896.137 640.516H960.036M960.036 576.617V640.516M960.036 576.617H1023.94M960.036 640.516H1023.94M1023.94 576.617V640.516M1023.94 576.617H1087.83M1023.94 640.516H1087.83M1087.83 576.617V640.516M1087.83 576.617H1151.73M1087.83 640.516H1151.73M1151.73 576.617V640.516M1151.73 576.617H1215.63M1151.73 640.516H1215.63M1215.63 576.617V640.516M1215.63 576.617H1279.53V640.516H1215.63M704.451 640.516H640.552V704.415H704.451M704.451 640.516V704.415M704.451 640.516H768.35M704.451 704.415H768.35M768.35 640.516V704.415M768.35 640.516H832.249M768.35 704.415H832.249M832.249 640.516V704.415M832.249 640.516H896.148M832.249 704.415H896.148M896.148 640.516V704.415M896.148 640.516H960.048M896.148 704.415H960.048M960.048 640.516V704.415M960.048 640.516H1023.95M960.048 704.415H1023.95M1023.95 640.516V704.415M1023.95 640.516H1087.85M1023.95 704.415H1087.85M1087.85 640.516V704.415M1087.85 640.516H1151.74M1087.85 704.415H1151.74M1151.74 640.516V704.415M1151.74 640.516H1215.64M1151.74 704.415H1215.64M1215.64 640.516V704.415M1215.64 640.516H1279.54V704.415H1215.64M704.463 704.415H640.564V768.314H704.463M704.463 704.415V768.314M704.463 704.415H768.362M704.463 768.314H768.362M768.362 704.415V768.314M768.362 704.415H832.261M768.362 768.314H832.261M832.261 704.415V768.314M832.261 704.415H896.16M832.261 768.314H896.16M896.16 704.415V768.314M896.16 704.415H960.059M896.16 768.314H960.059M960.059 704.415V768.314M960.059 704.415H1023.96M960.059 768.314H1023.96M1023.96 704.415V768.314M1023.96 704.415H1087.86M1023.96 768.314H1087.86M1087.86 704.415V768.314M1087.86 704.415H1151.76M1087.86 768.314H1151.76M1151.76 704.415V768.314M1151.76 704.415H1215.66M1151.76 768.314H1215.66M1215.66 704.415V768.314M1215.66 704.415H1279.55V768.314H1215.66M1279.49 386.116L1918.46 2.72937M1215.59 386.116L1724.69 3.92554M1151.69 386.116L1535.23 2.72937M1087.79 386.116L1343.46 2.72937M896.099 384.92L768.304 2.72937M1023.9 386.116L1151.69 3.92554M959.998 386.116V1.5332M176.321 106.405L1744.59 107.053M1604.81 190.919H317.173V963.504H1604.81M431.062 259.253H1490.93M519.889 312.548H1400.75M1334.04 353.386H587.952V801.04H1334.04M640.506 769.503L1.53125 1152.89M704.405 769.503L195.31 1151.69M1215.59 768.306L1724.69 1150.5M768.304 769.503L384.764 1152.89M1151.69 768.306L1535.23 1151.69M832.203 769.503L576.534 1152.89M1087.79 768.306L1343.46 1151.69M896.099 769.503L768.304 1151.69M1023.9 768.306L1151.69 1150.5M959.998 768.306V1152.89M176.321 1048.01L1744.59 1047.37M431.062 895.173H1490.93M1400.75 841.878H519.889V312.552M640.51 705.603L1.53125 960.598M640.51 512.714L1.53125 386.116M640.51 641.708L1.53125 768.306M640.51 576.613H1.53125M431.062 259.257V895.177M176.317 1048.02V106.405M1279.49 448.815L1918.46 193.821M1279.49 705.6L1918.46 960.594M1279.49 512.71L1918.46 386.112M1279.49 641.704L1918.46 768.303M1279.49 576.609H1918.46M1332.04 353.382V801.036M1400.11 312.548V841.874M1488.93 259.253V895.173M1602.82 190.922V963.508M1743.68 1048.02V106.405" stroke="url(#paint0_radial_25173_2381)" stroke-linecap="round" stroke-linejoin="round"/>
<defs>
<radialGradient id="paint0_radial_25173_2381" cx="0" cy="0" r="1" gradientUnits="userSpaceOnUse" gradientTransform="translate(959.996 577.212) rotate(90) scale(575.678 958.464)">
<stop offset="0.518408" stop-color="#D5D5D5" stop-opacity="0"/>
<stop offset="1" stop-color="#AFAFAF"/>
</radialGradient>
</defs>
</svg>
